<svg width="8" height="64" viewBox="0 0 8 64" fill="none" xmlns="http://www.w3.org/2000/svg">
<path d="M4 0.333333C2.52724 0.333333 1.33333 1.52724 1.33333 3C1.33333 4.47276 2.52724 5.66667 4 5.66667C5.47276 5.66667 6.66667 4.47276 6.66667 3C6.66667 1.52724 5.47276 0.333333 4 0.333333ZM3.64644 63.3536C3.84171 63.5488 4.15829 63.5488 4.35355 63.3536L7.53553 60.1716C7.73079 59.9763 7.73079 59.6597 7.53553 59.4645C7.34027 59.2692 7.02369 59.2692 6.82842 59.4645L4 62.2929L1.17157 59.4645C0.976308 59.2692 0.659726 59.2692 0.464464 59.4645C0.269201 59.6597 0.269201 59.9763 0.464464 60.1716L3.64644 63.3536ZM3.5 3L3.5 63L4.5 63L4.5 3L3.5 3Z" fill="#9E9E9E"/>
</svg>
