<svg width="24" height="24" viewBox="0 0 24 24" fill="none" xmlns="http://www.w3.org/2000/svg">
<path d="M19 4.00073H18V2.00073H16V4.00073H8V2.00073H6V4.00073H5C3.89 4.00073 3.01 4.90073 3.01 6.00073L3 20.0007C3 21.1007 3.89 22.0007 5 22.0007H19C20.1 22.0007 21 21.1007 21 20.0007V6.00073C21 4.90073 20.1 4.00073 19 4.00073ZM19 20.0007H5V10.0007H19V20.0007ZM19 8.00073H5V6.00073H19V8.00073ZM9 14.0007H7V12.0007H9V14.0007ZM13 14.0007H11V12.0007H13V14.0007ZM17 14.0007H15V12.0007H17V14.0007ZM9 18.0007H7V16.0007H9V18.0007ZM13 18.0007H11V16.0007H13V18.0007ZM17 18.0007H15V16.0007H17V18.0007Z" fill="#434343"/>
<path opacity="0.3" d="M19 6.00073H5V8.00073H19V6.00073Z" fill="#9627E7"/>
</svg>
