<svg width="16" height="16" viewBox="0 0 16 16" fill="none" xmlns="http://www.w3.org/2000/svg">
<path d="M9.99967 14.71V11.3767C9.99967 10.8462 9.78896 10.3375 9.41389 9.96246C9.03882 9.58739 8.53011 9.37667 7.99967 9.37667C7.46924 9.37667 6.96053 9.58739 6.58546 9.96246C6.21039 10.3375 5.99967 10.8462 5.99967 11.3767V14.71H2.66634C2.31272 14.71 1.97358 14.5695 1.72353 14.3195C1.47348 14.0694 1.33301 13.7303 1.33301 13.3767V6.13134C1.33301 5.90109 1.39263 5.67477 1.50607 5.4744C1.61951 5.27404 1.78291 5.10647 1.98034 4.988L7.31367 1.788C7.5209 1.66367 7.75801 1.59799 7.99967 1.59799C8.24133 1.59799 8.47845 1.66367 8.68567 1.788L14.019 4.988C14.2164 5.10647 14.3798 5.27404 14.4933 5.4744C14.6067 5.67477 14.6663 5.90109 14.6663 6.13134V13.3767C14.6663 13.7303 14.5259 14.0694 14.2758 14.3195C14.0258 14.5695 13.6866 14.71 13.333 14.71H9.99967Z" fill="#732EA5"/>
</svg>
